<?xml version="1.0" encoding="utf-8"?>
<!-- Generator: Adobe Illustrator 25.2.1, SVG Export Plug-In . SVG Version: 6.00 Build 0)  -->
<svg version="1.1" id="Layer_1" xmlns="http://www.w3.org/2000/svg" xmlns:xlink="http://www.w3.org/1999/xlink" x="0px" y="0px"
	 viewBox="0 0 2000 1000" style="enable-background:new 0 0 2000 1000;" xml:space="preserve">
<style type="text/css">
	.st0{fill:#4643C6;}
</style>
<g>
	<g>
		<path class="st0" d="M868.3,380.8c-29.5-29.6-70.2-47.9-115.2-47.9H576l47,101.4h130.1c16.5,0,32.1,6.5,43.8,18.2
			s18.1,27.4,18.1,44c0,16.6-6.5,32.2-18.1,44c-5.3,5.3-11.3,9.5-17.9,12.5c-8,3.7-16.8,5.7-25.9,5.7h-72.5l47,101.4h25.5
			c24.5,0,47.7-5.4,68.5-15.1c55.8-26,94.4-82.7,94.4-148.4C916,451.3,897.8,410.4,868.3,380.8z"/>
		<polygon class="st0" points="677.1,660 576,660 475,441.9 525.5,332.9 		"/>
		<polygon class="st0" points="525.5,660 424.5,660 323.5,441.9 374,332.9 		"/>
		<path class="st0" d="M374,660l-75.8-163.6l-43.6,94.2c-15,32.4,8.6,69.4,44.1,69.4H374z"/>
	</g>
	<g>
		<g>
			<path class="st0" d="M1138.5,439.5h-25.1l0.6-75.5h-0.5l-27.6,75.5h-18L1041,364h-0.5l0.6,75.5h-24.2V332.9h36.5l24.2,68.4h0.6
				l23.1-68.4h37.1v106.6H1138.5z"/>
			<path class="st0" d="M1271.1,385.7c0,16.8-5.5,30.4-16.4,40.9s-24.8,15.7-41.6,15.7c-16.7,0-30.5-5.2-41.4-15.7
				s-16.4-24.1-16.4-40.9c0-16.9,5.4-30.4,16.3-40.5s24.7-15.2,41.5-15.2c16.9,0,30.8,5.1,41.6,15.2
				C1265.7,355.4,1271.1,368.9,1271.1,385.7z M1243.7,385.7c0-9.4-2.9-17.2-8.6-23.3c-5.7-6.1-13-9.2-21.9-9.2s-16.2,3.1-21.8,9.2
				c-5.7,6.1-8.5,13.9-8.5,23.3c0,9.6,2.8,17.6,8.5,23.8c5.7,6.2,12.9,9.3,21.8,9.3s16.2-3.1,21.9-9.3
				C1240.8,403.3,1243.7,395.4,1243.7,385.7z"/>
			<path class="st0" d="M1360.6,343.3l-16.4,17.3c-2.1-2.7-4.9-4.9-8.5-6.6s-7-2.6-10.4-2.6c-4,0-7.5,0.8-10.4,2.5
				c-3,1.7-4.4,4.4-4.4,8.2c0,1.7,0.3,3.2,1.1,4.4c0.7,1.3,1.9,2.4,3.5,3.3c1.7,1,3.3,1.8,4.9,2.4c1.6,0.7,3.9,1.4,6.9,2.3
				c3.9,1.3,7,2.4,9.2,3.2c2.2,0.8,5,2.1,8.5,4s6.1,3.8,8,5.8s3.6,4.7,5.1,8.1s2.3,7.1,2.3,11.1c0,11.5-3.9,20.4-11.8,26.4
				c-7.9,6.1-17.5,9.1-28.9,9.1c-7.7,0-15.1-1.4-22.2-4.1s-13-6.5-17.6-11.3l16.8-17.2c2.6,3.3,6,6,10.3,8.1
				c4.2,2.1,8.5,3.2,12.7,3.2c4.3,0,7.8-0.9,10.6-2.8c2.8-1.9,4.1-4.8,4.1-8.8c0-1.6-0.4-3-1.1-4.3c-0.8-1.3-1.6-2.3-2.5-3.2
				c-0.9-0.9-2.5-1.8-4.8-2.8s-4.3-1.8-5.9-2.3s-4.2-1.4-7.8-2.6c-3.9-1.3-7.3-2.7-10.1-4.1c-2.8-1.4-5.6-3.3-8.4-5.6
				c-2.8-2.3-5-5.2-6.5-8.7s-2.3-7.6-2.3-12.2c0-5.6,1.2-10.7,3.6-15.1c2.4-4.5,5.6-8,9.6-10.5c4-2.6,8.4-4.5,13.1-5.8
				c4.8-1.3,9.7-2,14.8-2c6.2,0,12.4,1.1,18.7,3.4C1350.7,335.8,1356.1,339,1360.6,343.3z"/>
			<path class="st0" d="M1470.3,424.7c-10.1,11.7-23.9,17.6-41.3,17.6c-16.5,0-30.2-5.2-41-15.7s-16.2-24-16.2-40.6
				c0-16.8,5.5-30.3,16.4-40.6c11-10.3,24.7-15.4,41.2-15.4c7.7,0,15.2,1.4,22.4,4.1c7.3,2.8,13,6.6,17.3,11.5l-17.4,17.5
				c-2.3-3.2-5.4-5.6-9.2-7.3c-3.9-1.7-7.9-2.5-12.2-2.5c-8.9,0-16.2,3.1-22,9.3c-5.8,6.2-8.6,14-8.6,23.4c0,9.6,2.8,17.5,8.4,23.6
				s12.9,9.1,21.8,9.1c9.9,0,17.4-3.6,22.5-10.8L1470.3,424.7z"/>
			<path class="st0" d="M1590.2,385.7c0,16.8-5.5,30.4-16.4,40.9s-24.8,15.7-41.6,15.7c-16.7,0-30.5-5.2-41.4-15.7
				s-16.4-24.1-16.4-40.9c0-16.9,5.4-30.4,16.3-40.5s24.7-15.2,41.5-15.2c16.9,0,30.8,5.1,41.6,15.2
				C1584.7,355.4,1590.2,368.9,1590.2,385.7z M1562.7,385.7c0-9.4-2.9-17.2-8.6-23.3c-5.7-6.1-13-9.2-21.9-9.2s-16.2,3.1-21.8,9.2
				c-5.7,6.1-8.5,13.9-8.5,23.3c0,9.6,2.8,17.6,8.5,23.8c5.7,6.2,12.9,9.3,21.8,9.3s16.2-3.1,21.9-9.3
				C1559.9,403.3,1562.7,395.4,1562.7,385.7z"/>
			<path class="st0" d="M1750,332.9l-30.3,106.6h-25.4l-21-72.1h-0.5l-21,72.1h-25.5l-30.2-106.6h27.6l16.8,70.9h0.5l18.9-70.9h26.7
				l19.1,70.9h0.5l17.1-70.9H1750z"/>
		</g>
		<g>
			<path class="st0" d="M1116.3,518.9c0,9-1.7,17.1-5.1,24.1s-8,12.7-13.7,16.9c-5.8,4.2-12.1,7.4-19,9.5s-14.2,3.2-21.8,3.2h-39.6
				V465.9h38.4c6.3,0,12.3,0.5,17.9,1.6c5.7,1.1,11.1,2.9,16.4,5.5s9.9,5.9,13.7,9.8c3.9,3.9,6.9,9,9.2,15.1
				C1115.1,504,1116.3,511,1116.3,518.9z M1089.6,518.9c0-5.7-1-10.7-2.9-14.8c-1.9-4.2-4.5-7.4-7.9-9.7c-3.4-2.3-7-4-11-5
				s-8.3-1.5-13-1.5H1042v62.4h12.2c10.3,0,18.8-2.5,25.4-7.4C1086.3,537.9,1089.6,529.9,1089.6,518.9z"/>
			<path class="st0" d="M1223.3,532.3c0,12.9-4.2,23.2-12.5,31.2c-8.4,7.9-19.4,11.9-33.2,11.9c-13.8,0-24.8-3.9-33-11.8
				c-8.2-7.9-12.3-18.3-12.3-31.3v-66.4h25.5v64.3c0,6.3,1.7,11.6,5,15.7c3.3,4.2,8.3,6.3,15,6.3c6.8,0,11.8-2.1,15.1-6.3
				c3.2-4.2,4.9-9.4,4.9-15.7v-64.3h25.7v66.4H1223.3z"/>
			<path class="st0" d="M1326.8,541.5c0,5.5-1.1,10.4-3.4,14.5c-2.3,4.2-5.4,7.4-9.3,9.7c-4,2.3-8.3,4-12.9,5.1
				c-4.7,1.1-9.6,1.7-14.9,1.7H1244V465.9h42.3c4.5,0,8.7,0.4,12.7,1.3s7.8,2.3,11.5,4.2c3.7,2,6.6,4.8,8.8,8.6
				c2.2,3.8,3.2,8.2,3.2,13.3c0,5.7-1.6,10.5-4.7,14.5c-3.1,3.9-7.4,6.8-12.8,8.6v0.3c6.4,1.1,11.6,3.8,15.7,8.2
				C1324.8,529.2,1326.8,534.7,1326.8,541.5z M1297.7,496.7c0-6.9-5.5-10.4-16.4-10.4h-12.6v22h13.8c4.8,0,8.5-1,11.2-3
				C1296.4,503.3,1297.7,500.4,1297.7,496.7z M1301.1,539.1c0-7.8-6.1-11.7-18.2-11.7h-14.3v24.4h14.4
				C1295.1,551.7,1301.1,547.5,1301.1,539.1z"/>
			<path class="st0" d="M1444.3,572.5h-28.5l-8.3-20.9h-41.1l-7.8,20.9h-27.9l44.6-106.6h24.9L1444.3,572.5z M1400.5,530.9
				l-13.2-36.6l-13.5,36.6H1400.5z"/>
			<path class="st0" d="M1479,572.5h-25.8V465.9h25.8V572.5z"/>
		</g>
	</g>
	<g>
		<path class="st0" d="M1017.1,670v-17h3.7c4.5-5.1,6.7-13.7,6.7-25.7V616h30.6v37h4.9v17h-7v-10h-31.9v10H1017.1z M1029.6,653h20.7
			v-30.2H1035v5.3C1035,639.5,1033.2,647.8,1029.6,653z"/>
		<path class="st0" d="M1069.2,660v-44h29v6.8H1077V634h20.1v6.6H1077V653h22.3v7H1069.2z"/>
		<path class="st0" d="M1106.9,660v-44h7.8v17.8h20.5V616h7.8v44h-7.8v-19.5h-20.5V660H1106.9z"/>
		<path class="st0" d="M1152.7,660v-44h29v6.8h-21.2V634h20.1v6.6h-20.1V653h22.3v7H1152.7z"/>
		<path class="st0" d="M1221.2,660h-7.8v-21.9h-0.1l-17.8,21.9h-10.3l19.7-24l-18.7-20h10l17,19h0.1v-19h7.8v19h0.1l17-19h10
			l-18.7,20l19.7,24H1239l-17.8-21.9h-0.1L1221.2,660L1221.2,660z"/>
		<path class="st0" d="M1253.8,660v-44h7.8v17.8h20.5V616h7.8v44h-7.8v-19.5h-20.5V660H1253.8z"/>
		<path class="st0" d="M1299.6,660v-44h7.8v17.5h6.5c5,0,8.9,1.1,12,3.3c3,2.2,4.5,5.5,4.5,9.9s-1.5,7.7-4.5,9.9s-7,3.4-11.9,3.4
			L1299.6,660L1299.6,660z M1307.4,653.4h5.9c6.2,0,9.3-2.2,9.3-6.6c0-2.2-0.8-3.9-2.4-5s-3.9-1.7-6.9-1.7h-5.9V653.4z M1336.5,660
			v-44h7.8v44H1336.5z"/>
		<path class="st0" d="M1353.9,660v-44h29v6.8h-21.2V634h20.1v6.6h-20.1V653h22.3v7H1353.9z"/>
		<path class="st0" d="M1407.1,660v-44h35.7v44h-7.8v-37.1h-20.1V660H1407.1z"/>
		<path class="st0" d="M1452.5,660v-44h29v6.8h-21.2V634h20.1v6.6h-20.1V653h22.3v7H1452.5z"/>
		<path class="st0" d="M1490.3,660v-44h14.3c11,0,16.5,4.2,16.5,12.7c0,4.6-1.6,7.9-4.7,9.9c-3.1,2.1-7.2,3.1-12.3,3.1h-6V660
			H1490.3z M1498.1,635.2h5.4c6.5,0,9.7-2.2,9.7-6.5c0-2.4-0.9-4-2.6-4.8c-1.7-0.9-4-1.3-6.9-1.3h-5.7L1498.1,635.2L1498.1,635.2z"
			/>
		<path class="st0" d="M1528,660v-44h29v6.8h-21.2V634h20.1v6.6h-20.1V653h22.3v7H1528z"/>
		<path class="st0" d="M1565.8,660v-44h17.1c3.7,0,6.9,0.9,9.5,2.7s3.9,4.6,3.9,8.3c0,2.4-0.7,4.4-2,6.1c-1.4,1.7-3.2,2.8-5.6,3.5
			v0.1c2.8,0.4,5.1,1.5,6.9,3.3c1.7,1.8,2.6,4.2,2.6,7.1c0,2.3-0.5,4.3-1.4,6s-2.2,3.1-3.8,4c-1.6,1-3.4,1.7-5.3,2.1
			c-1.9,0.5-3.9,0.7-6.1,0.7h-15.8V660z M1573.6,622.5v11.4h6.9c2.6,0,4.6-0.5,5.9-1.6c1.4-1,2-2.5,2-4.4s-0.7-3.3-2.1-4.2
			c-1.4-0.8-3.6-1.3-6.6-1.3L1573.6,622.5L1573.6,622.5z M1573.6,640.6v12.8h7c6.5,0,9.8-2.2,9.8-6.6c0-2.2-0.8-3.8-2.3-4.8
			s-3.9-1.4-7.2-1.4H1573.6z"/>
		<path class="st0" d="M1603.7,637.9c0-7,2.2-12.5,6.6-16.7s10-6.3,16.9-6.3s12.6,2.1,17,6.3s6.6,9.8,6.6,16.7
			c0,6.8-2.2,12.4-6.7,16.7c-4.4,4.3-10.1,6.5-17,6.5c-6.8,0-12.4-2.2-16.8-6.5C1605.9,650.3,1603.7,644.7,1603.7,637.9z
			 M1612.2,637.9c0,4.7,1.4,8.6,4.2,11.6s6.4,4.6,10.8,4.6c4.5,0,8.1-1.5,10.9-4.6c2.8-3,4.2-6.9,4.2-11.6c0-4.6-1.4-8.4-4.2-11.5
			c-2.8-3.1-6.4-4.6-10.9-4.6s-8.1,1.5-10.9,4.6C1613.6,629.5,1612.2,633.3,1612.2,637.9z"/>
		<path class="st0" d="M1653.2,670v-17h3.7c4.5-5.1,6.7-13.7,6.7-25.7V616h30.6v37h4.9v17h-7v-10h-31.9v10H1653.2z M1665.7,653h20.7
			v-30.2h-15.3v5.3C1671.1,639.5,1669.3,647.8,1665.7,653z"/>
		<path class="st0" d="M1705.3,660v-44h7.8v17.5h6.5c5,0,8.9,1.1,12,3.3c3,2.2,4.5,5.5,4.5,9.9s-1.5,7.7-4.5,9.9s-7,3.4-11.9,3.4
			L1705.3,660L1705.3,660z M1713.1,653.4h5.9c6.2,0,9.3-2.2,9.3-6.6c0-2.2-0.8-3.9-2.4-5s-3.9-1.7-6.9-1.7h-5.9V653.4z M1742.2,660
			v-44h7.8v44H1742.2z"/>
	</g>
</g>
</svg>
